# Blender 4.5.3 LTS
# www.blender.org
mtllib amul_parlour_base_no_texture.mtl
o Cube
o Cube.001
v 4.856904 -0.021284 -8.136570
v 4.856904 -0.173033 -8.136570
v 4.856904 -0.021284 -16.635204
v 4.856904 -0.173033 -16.635204
v 10.399447 -0.021284 -8.136570
v 10.399447 -0.173033 -8.136570
v 10.399447 -0.021284 -16.635204
v 10.399447 -0.173033 -16.635204
v 4.856904 1.230313 -8.136570
v 10.399447 1.238845 -8.136570
v 10.399447 1.247377 -16.635204
v 4.856904 -0.021284 -10.430590
v 4.856904 1.230313 -10.430590
v 4.856904 1.053219 -16.635204
v 4.856904 -0.021284 -14.239090
v 4.856904 1.053219 -14.239090
v 6.186007 -0.021284 -16.635204
v 6.186007 1.053219 -16.635204
v 8.100060 -0.021284 -16.635204
v 8.100060 1.247377 -16.635204
vn -1.0000 -0.0000 -0.0000
vn -0.0000 -0.0000 -1.0000
vn 1.0000 -0.0000 -0.0000
vn -0.0000 -0.0000 1.0000
vn -0.0000 1.0000 -0.0000
vn -0.0000 -1.0000 -0.0000
vt 0.375000 0.000000
vt 0.625000 0.000000
vt 0.625000 0.250000
vt 0.375000 0.250000
vt 0.625000 0.500000
vt 0.375000 0.500000
vt 0.625000 0.750000
vt 0.375000 0.750000
vt 0.625000 1.000000
vt 0.375000 1.000000
vt 0.125000 0.500000
vt 0.125000 0.750000
vt 0.875000 0.500000
vt 0.875000 0.750000
vt 0.000000 0.000000
s 0
f 1/1/1 3/4/1 4/3/1 2/2/1
f 3/4/2 7/6/2 8/5/2 4/3/2
f 7/6/3 5/8/3 6/7/3 8/5/3
f 5/8/4 1/10/4 2/9/4 6/7/4
f 3/11/5 1/12/5 5/8/5 7/6/5
f 8/5/6 6/7/6 2/14/6 4/13/6
f 1/10/2 9/10/2 10/8/2 5/8/2
f 5/8/1 10/8/1 11/6/1 7/6/1
f 1/10/3 12/10/3 13/10/3 9/10/3
f 3/15/1 15/15/1 16/15/1 14/15/1
f 14/15/2 18/15/2 17/15/2 3/15/2
f 11/6/4 20/6/4 19/6/4 7/6/4
o Cube.002
v 5.138456 -0.030002 -16.162292
v 5.138456 2.157582 -16.162292
v 5.138456 -0.030002 -16.294151
v 5.138456 2.157582 -16.294151
v 5.270313 -0.030002 -16.162292
v 5.270313 2.157582 -16.162292
v 5.270313 -0.030002 -16.294151
v 5.270313 2.157582 -16.294151
vn -1.0000 -0.0000 -0.0000
vn -0.0000 -0.0000 -1.0000
vn 1.0000 -0.0000 -0.0000
vn -0.0000 -0.0000 1.0000
vn -0.0000 -1.0000 -0.0000
vn -0.0000 1.0000 -0.0000
vt 0.375000 0.000000
vt 0.625000 0.000000
vt 0.625000 0.250000
vt 0.375000 0.250000
vt 0.625000 0.500000
vt 0.375000 0.500000
vt 0.625000 0.750000
vt 0.375000 0.750000
vt 0.625000 1.000000
vt 0.375000 1.000000
vt 0.125000 0.500000
vt 0.125000 0.750000
vt 0.875000 0.500000
vt 0.875000 0.750000
s 0
f 21/16/7 22/17/7 24/18/7 23/19/7
f 23/19/8 24/18/8 28/20/8 27/21/8
f 27/21/9 28/20/9 26/22/9 25/23/9
f 25/23/10 26/22/10 22/24/10 21/25/10
f 23/26/11 27/21/11 25/23/11 21/27/11
f 28/20/12 24/28/12 22/29/12 26/22/12
o Cube.004
v 9.929914 -0.030002 -16.228451
v 9.929914 2.157582 -16.228451
v 9.929914 -0.030002 -16.360310
v 9.929914 2.157582 -16.360310
v 10.061771 -0.030002 -16.228451
v 10.061771 2.157582 -16.228451
v 10.061771 -0.030002 -16.360310
v 10.061771 2.157582 -16.360310
vn -1.0000 -0.0000 -0.0000
vn -0.0000 -0.0000 -1.0000
vn 1.0000 -0.0000 -0.0000
vn -0.0000 -0.0000 1.0000
vn -0.0000 -1.0000 -0.0000
vn -0.0000 1.0000 -0.0000
vt 0.375000 0.000000
vt 0.625000 0.000000
vt 0.625000 0.250000
vt 0.375000 0.250000
vt 0.625000 0.500000
vt 0.375000 0.500000
vt 0.625000 0.750000
vt 0.375000 0.750000
vt 0.625000 1.000000
vt 0.375000 1.000000
vt 0.125000 0.500000
vt 0.125000 0.750000
vt 0.875000 0.500000
vt 0.875000 0.750000
s 0
f 29/30/13 30/31/13 32/32/13 31/33/13
f 31/33/14 32/32/14 36/34/14 35/35/14
f 35/35/15 36/34/15 34/36/15 33/37/15
f 33/37/16 34/36/16 30/38/16 29/39/16
f 31/40/17 35/35/17 33/37/17 29/41/17
f 36/34/18 32/42/18 30/43/18 34/36/18
o Cube.003
v 5.138456 -0.030002 -8.552341
v 5.138456 2.157582 -8.552341
v 5.138456 -0.030002 -8.684198
v 5.138456 2.157582 -8.684198
v 5.270313 -0.030002 -8.552341
v 5.270313 2.157582 -8.552341
v 5.270313 -0.030002 -8.684198
v 5.270313 2.157582 -8.684198
vn -1.0000 -0.0000 -0.0000
vn -0.0000 -0.0000 -1.0000
vn 1.0000 -0.0000 -0.0000
vn -0.0000 -0.0000 1.0000
vn -0.0000 -1.0000 -0.0000
vn -0.0000 1.0000 -0.0000
vt 0.375000 0.000000
vt 0.625000 0.000000
vt 0.625000 0.250000
vt 0.375000 0.250000
vt 0.625000 0.500000
vt 0.375000 0.500000
vt 0.625000 0.750000
vt 0.375000 0.750000
vt 0.625000 1.000000
vt 0.375000 1.000000
vt 0.125000 0.500000
vt 0.125000 0.750000
vt 0.875000 0.500000
vt 0.875000 0.750000
s 0
f 37/44/19 38/45/19 40/46/19 39/47/19
f 39/47/20 40/46/20 44/48/20 43/49/20
f 43/49/21 44/48/21 42/50/21 41/51/21
f 41/51/22 42/50/22 38/52/22 37/53/22
f 39/54/23 43/49/23 41/51/23 37/55/23
f 44/48/24 40/56/24 38/57/24 42/50/24
o Cube.005
v 10.024882 -0.030002 -8.552341
v 10.024882 2.157582 -8.552341
v 10.024882 -0.030002 -8.684198
v 10.024882 2.157582 -8.684198
v 10.156739 -0.030002 -8.552341
v 10.156739 2.157582 -8.552341
v 10.156739 -0.030002 -8.684198
v 10.156739 2.157582 -8.684198
vn -1.0000 -0.0000 -0.0000
vn -0.0000 -0.0000 -1.0000
vn 1.0000 -0.0000 -0.0000
vn -0.0000 -0.0000 1.0000
vn -0.0000 -1.0000 -0.0000
vn -0.0000 1.0000 -0.0000
vt 0.375000 0.000000
vt 0.625000 0.000000
vt 0.625000 0.250000
vt 0.375000 0.250000
vt 0.625000 0.500000
vt 0.375000 0.500000
vt 0.625000 0.750000
vt 0.375000 0.750000
vt 0.625000 1.000000
vt 0.375000 1.000000
vt 0.125000 0.500000
vt 0.125000 0.750000
vt 0.875000 0.500000
vt 0.875000 0.750000
s 0
f 45/58/25 46/59/25 48/60/25 47/61/25
f 47/61/26 48/60/26 52/62/26 51/63/26
f 51/63/27 52/62/27 50/64/27 49/65/27
f 49/65/28 50/64/28 46/66/28 45/67/28
f 47/68/29 51/63/29 49/65/29 45/69/29
f 52/62/30 48/70/30 46/71/30 50/64/30
o Plane
v 4.507307 3.102127 -7.518709
v 11.233523 2.096057 -7.518709
v 4.507307 3.102127 -16.937895
v 11.233523 2.096057 -16.937895
v 4.507307 2.078829 -7.518709
v 4.507307 2.078829 -16.937895
vn 0.1479 0.9890 -0.0000
vn -1.0000 -0.0000 -0.0000
vn 0.0026 -1.0000 -0.0000
vn -0.0000 -0.0000 1.0000
vn -0.0000 -0.0000 -1.0000
vt 0.000000 0.000000
vt 1.000000 0.000000
vt 1.000000 1.000000
vt 0.000000 1.000000
s 0
f 53/72/31 54/73/31 56/74/31 55/75/31
f 53/72/32 55/75/32 58/75/32 57/72/32
f 57/72/33 58/75/33 56/75/33 54/72/33
f 53/72/34 57/72/34 54/73/34
f 56/75/35 58/75/35 55/75/35
